<svg xmlns="http://www.w3.org/2000/svg" viewBox="0 0 900 540" role="img" aria-label="Guia de captura de swing de golf">
  <rect width="900" height="540" fill="#101b19"/>
  <path d="M0 392c160-48 320-51 480-10 166 43 306 20 420-49v207H0z" fill="#1f5d49"/>
  <path d="M0 418c155-38 303-42 446-13 176 36 326 16 454-54" fill="none" stroke="#d7b56d" stroke-width="4" opacity=".75"/>
  <circle cx="252" cy="118" r="42" fill="#efeee7" opacity=".92"/>
  <path d="M268 159c28 31 43 77 44 139" fill="none" stroke="#efeee7" stroke-width="18" stroke-linecap="round"/>
  <path d="M298 217c-46 20-93 26-139 19" fill="none" stroke="#d7b56d" stroke-width="16" stroke-linecap="round"/>
  <path d="M307 302c-21 36-39 75-53 116" fill="none" stroke="#efeee7" stroke-width="17" stroke-linecap="round"/>
  <path d="M321 303c34 29 62 66 84 111" fill="none" stroke="#efeee7" stroke-width="17" stroke-linecap="round"/>
  <path d="M153 233 526 90" stroke="#c9d7d0" stroke-width="7" stroke-linecap="round"/>
  <circle cx="558" cy="398" r="10" fill="#f8f5ea"/>
  <path d="M164 442h480" stroke="#e7e0c8" stroke-width="3" stroke-dasharray="10 12" opacity=".7"/>
  <path d="M710 94h118v118H710z" fill="none" stroke="#e7e0c8" stroke-width="3" opacity=".55"/>
  <path d="M734 158h70M769 123v70" stroke="#e7e0c8" stroke-width="3" opacity=".55"/>
</svg>
